<?xml version="1.0" encoding="UTF-8"?>
<svg xmlns="http://www.w3.org/2000/svg" width="640" height="400" viewBox="0 0 640 400" role="img" aria-label="Professional services site preview">
  <rect width="640" height="400" rx="14" fill="#1a1d24"/>
  <rect x="10" y="10" width="620" height="380" rx="10" fill="#0b0d12"/>
  <circle cx="28" cy="28" r="4" fill="#f87171"/>
  <circle cx="44" cy="28" r="4" fill="#fbbf24"/>
  <circle cx="60" cy="28" r="4" fill="#34d399"/>
  <rect x="80" y="22" width="160" height="12" rx="3" fill="#27272a"/>
  <g transform="translate(10,44)">
    <rect width="620" height="346" fill="#f8fafc"/>
    <rect width="620" height="120" fill="#0b1f3a"/>
    <text x="30" y="40" fill="#93c5fd" font-family="system-ui,sans-serif" font-size="10" font-weight="600" letter-spacing="1">ADVISORY · COMPLIANCE</text>
    <text x="30" y="70" fill="#fff" font-family="system-ui,sans-serif" font-size="20" font-weight="700">Clarity for operators</text>
    <rect x="30" y="88" width="110" height="26" rx="6" fill="#3b82f6"/>
    <text x="85" y="105" text-anchor="middle" fill="#fff" font-family="system-ui,sans-serif" font-size="10" font-weight="600">Book a call</text>
    <rect x="30" y="150" width="175" height="120" rx="10" fill="#fff" stroke="#e2e8f0"/>
    <rect x="45" y="168" width="32" height="32" rx="8" fill="#eff6ff"/>
    <rect x="45" y="215" width="100" height="8" rx="2" fill="#0b1f3a" opacity="0.35"/>
    <rect x="45" y="232" width="130" height="6" rx="2" fill="#94a3b8" opacity="0.5"/>
    <rect x="220" y="150" width="175" height="120" rx="10" fill="#fff" stroke="#e2e8f0"/>
    <rect x="235" y="168" width="32" height="32" rx="8" fill="#eff6ff"/>
    <rect x="235" y="215" width="100" height="8" rx="2" fill="#0b1f3a" opacity="0.35"/>
    <rect x="410" y="150" width="175" height="120" rx="10" fill="#fff" stroke="#e2e8f0"/>
    <rect x="425" y="168" width="32" height="32" rx="8" fill="#eff6ff"/>
    <rect x="425" y="215" width="100" height="8" rx="2" fill="#0b1f3a" opacity="0.35"/>
    <rect x="30" y="290" width="100" height="36" rx="8" fill="#fff" stroke="#e2e8f0"/>
    <rect x="145" y="290" width="100" height="36" rx="8" fill="#fff" stroke="#e2e8f0"/>
    <rect x="260" y="290" width="100" height="36" rx="8" fill="#fff" stroke="#e2e8f0"/>
  </g>
</svg>